<svg width="80" height="40" xmlns="http://www.w3.org/2000/svg">

 <g>
  <title>background</title>
  <rect fill="#212121" id="canvas_background" height="42" width="82" y="-1" x="-1"/>
 </g>
 <g>
  <title>Layer 1</title>
  <path id="svg_1" d="m5.63658,23.78l0.42,2.352s1.12,0.588 2.744,0.588c1.792,0 3.388,-0.784 3.388,-2.268c0,-3.276 -9.464,-1.82 -9.464,-8.736c0,-3.864 3.052,-5.936 7.112,-5.936c3.164,0 6.16,1.12 6.16,1.12l-0.14,5.096l-2.576,0l-0.7,-2.38s-1.26,-0.42 -2.464,-0.42c-1.988,0 -2.968,0.868 -2.968,1.988c0,3.248 9.436,1.96 9.436,8.54c0,4.2 -3.248,6.496 -7.56,6.496c-3.164,0 -6.244,-1.064 -6.244,-1.064l0,-5.376l2.856,0zm27.65028,-5.684l0,3.08l-5.656,0l0,5.32l5.012,0l0.644,-2.296l2.52,0l0,5.656l-14.616,0l0,-2.38l2.1,-0.84l0,-13.16l-2.1,-0.84l0,-2.38l6.44,-0.14l7.84,0l0,5.404l-2.52,0l-0.7,-2.044l-4.62,0l0,4.62l5.656,0zm19.36228,0l0,3.08l-5.656,0l0,5.32l5.012,0l0.644,-2.296l2.52,0l0,5.656l-14.616,0l0,-2.38l2.1,-0.84l0,-13.16l-2.1,-0.84l0,-2.38l6.44,-0.14l7.84,0l0,5.404l-2.52,0l-0.7,-2.044l-4.62,0l0,4.62l5.656,0zm6.98628,11.76l0,-2.38l2.1,-0.84l0,-13.16l-2.1,-0.84l0,-2.38l6.44,-0.14l2.128,0c4.592,0 7.28,1.904 7.28,5.712c0,2.632 -1.26,4.34 -3.164,5.292c0.308,0.364 0.728,0.896 1.176,1.82l1.876,3.836l1.904,0.7l0,2.38l-5.18,0l-2.352,-5.18c-0.952,-2.128 -1.204,-2.576 -2.688,-2.576l-0.98,0l0,4.536l2.016,0.84l0,2.38l-8.456,0zm6.44,-10.696l1.596,0c2.212,0 3.5,-1.064 3.5,-2.94c0,-1.596 -1.064,-2.744 -2.8,-2.744l-2.296,0l0,5.684z" fill="#fb8c00"/>
  <path id="svg_2" fill="#"/>
 </g>
</svg>