<svg width="80" height="40" xmlns="http://www.w3.org/2000/svg">

 <g>
  <title>background</title>
  <rect fill="none" id="canvas_background" height="42" width="82" y="-1" x="-1"/>
 </g>
 <g>
  <title>Layer 1</title>
  <path id="svg_1" d="m9.038718,12.286l10.556,0l0,-2.128l-10.556,0q-2.072,0 -3.472,1.624q-1.428,1.652 -1.428,4.004q0,2.128 1.428,3.696q1.4,1.596 3.472,1.596l2.8,0l2.856,0q1.26,0 2.24,1.064q0.924,1.12 0.924,2.436q0,1.568 -0.91,2.548t-2.254,0.98l-10.556,0l0,1.736l10.556,0q2.1,0 3.5,-1.456t1.4,-3.808q0,-2.128 -1.4,-3.696q-1.428,-1.568 -3.5,-1.568l-2.856,0l-2.8,0q-1.288,0 -2.212,-1.12q-0.952,-1.036 -0.952,-2.408q0,-1.568 0.91,-2.534t2.254,-0.966zm16.26352,12.18q0,-1.344 0.952,-2.436q0.952,-1.148 2.296,-1.148l0.364,0l5.236,0l0,-1.736l-5.236,0l-0.364,0q-1.428,-0.28 -2.338,-1.232t-0.91,-2.268q0,-1.652 0.966,-2.618t2.646,-0.966l9.52,0l0,-1.764l-9.52,0q-2.156,0 -3.752,1.596q-1.596,1.54 -1.596,3.752q0,1.4 0.532,2.548t1.568,1.652q-1.036,0.756 -1.568,1.988t-0.532,2.632q0,2.184 1.596,3.724q1.624,1.624 3.752,1.624l9.52,0l0,-1.848l-9.52,0q-1.68,0 -2.646,-0.952t-0.966,-2.548zm18.33552,0q0,-1.344 0.952,-2.436q0.952,-1.148 2.296,-1.148l0.364,0l5.236,0l0,-1.736l-5.236,0l-0.364,0q-1.428,-0.28 -2.338,-1.232t-0.91,-2.268q0,-1.652 0.966,-2.618t2.646,-0.966l9.52,0l0,-1.764l-9.52,0q-2.156,0 -3.752,1.596q-1.596,1.54 -1.596,3.752q0,1.4 0.532,2.548t1.568,1.652q-1.036,0.756 -1.568,1.988t-0.532,2.632q0,2.184 1.596,3.724q1.624,1.624 3.752,1.624l9.52,0l0,-1.848l-9.52,0q-1.68,0 -2.646,-0.952t-0.966,-2.548zm25.19552,-4.452l2.1,0q2.128,0 3.528,-1.4t1.4,-3.528q0,-1.876 -1.4,-3.36q-1.484,-1.54 -3.528,-1.54l-8.764,0l-1.736,0l0,19.656l1.736,0l0,-9.828l4.564,0l5.964,9.828l2.1,0l-5.964,-9.828zm-6.664,-1.736l0,-6.328l8.764,0q1.288,0 2.268,0.924q0.924,0.924 0.924,2.212q0,1.344 -0.924,2.268q-0.98,0.924 -2.268,0.924l-8.764,0z" fill="#23a0fa"/>
  <path id="svg_2" fill="#"/>
 </g>
</svg>